<?xml version="1.0" standalone="no"?><!DOCTYPE svg PUBLIC "-//W3C//DTD SVG 1.1//EN" "http://www.w3.org/Graphics/SVG/1.1/DTD/svg11.dtd"><svg t="1773404568441" class="icon" viewBox="0 0 1024 1024" version="1.1" xmlns="http://www.w3.org/2000/svg" p-id="4850" xmlns:xlink="http://www.w3.org/1999/xlink" width="200" height="200"><path d="M0 512c0 512 0 512 512 512s512 0 512-512S1024 0 512 0 0 0 0 512z m628.59-388.389c34.523 10.24 95.232 111.763 122.002 203.776 2.487 8.631 4.681 15.8 4.827 16.092 0.293 0.146 8.192-1.61 17.847-4.096 67-16.97 138.387-11.118 199.095 16.091 10.679 4.828 10.679 4.828 1.463 14.483-24.43 26.038-34.23 42.276-76.507 126.39-19.018 37.888-39.498 77.24-45.642 87.333C697.637 841.143 363.52 923.794 109.568 767.415c-41.106-25.308-37.01-0.732-37.595-231.863-0.293-199.534-0.44-197.632 5.266-197.632 1.316 0 16.823 14.336 34.523 31.89 56.32 55.735 105.619 96.11 167.644 137.363 56.612 37.741 141.02 83.968 149.357 81.92 18.871-4.828 116.883-76.947 116.883-85.87 0-4.681-29.111-53.394-52.956-88.796C425.253 314.368 337.92 221.623 241.08 147.31c-37.742-28.819-58.368-25.893 180.955-25.893 173.349 0 200.12 0.293 206.556 2.194z" fill="#FEFEFE" p-id="4851"></path><path d="M831.634 329.143c-0.585 0.878 5.56 1.463 17.555 1.463s18.139-0.585 17.554-1.463c-0.585-0.878-8.046-1.463-17.554-1.463s-16.97 0.585-17.555 1.463z m-17.554 1.463c-0.585 0.877 1.024 1.463 3.51 1.463s4.536-0.732 4.536-1.463c0-0.878-1.61-1.463-3.511-1.463-2.048 0-4.096 0.585-4.535 1.463zM73.29 337.48c-5.706 4.681-3.95 389.852 1.755 401.554 7.021 14.483 26.477 28.234 72.704 51.493 229.522 116.15 509.074 52.955 667.94-150.82 21.212-27.063 55.15-80.897 52.81-83.383-1.171-1.17-0.586-1.902-8.046 10.825-46.52 79.58-141.605 116.297-236.983 91.72-64.073-16.53-200.12-68.022-189.148-71.533 1.756-0.439 3.072-1.463 3.072-2.048s2.34-1.902 5.12-2.926 5.12-2.34 5.12-3.072c0-0.585 1.463-1.462 3.365-2.048 1.755-0.438 4.535-1.901 6.144-3.364 1.755-1.463 5.412-3.95 8.484-5.413 2.926-1.609 5.413-3.364 5.413-4.096 0-0.585 1.024-1.17 2.194-1.17s2.195-0.731 2.195-1.463c0-0.878 0.877-1.463 2.048-1.463 1.024 0 3.657-1.609 5.851-3.657s4.535-3.657 5.413-3.657c0.731 0 1.316-0.731 1.316-1.463 0-0.878 1.024-1.463 2.194-1.463 1.317 0 2.634-1.024 3.072-2.194 0.586-1.17 1.902-2.194 2.926-2.194 1.17 0 2.487-1.024 2.926-2.195 0.585-1.17 1.755-2.194 2.78-2.194 2.194 0 4.388-2.633 3.218-3.803-0.44-0.44-6.144 3.218-12.581 8.045-14.043 10.24-31.159 21.65-48.42 32.037-20.773 12.288-16.677 12.434-44.033-1.17-108.544-54.419-199.826-120.247-289.645-208.75-34.963-34.523-34.377-34.085-39.205-30.135z m693.979 1.317c-10.826 3.218-11.41 3.51-10.533 4.388 1.17 1.17 21.504-4.096 21.504-5.559 0-1.609-2.487-1.316-10.971 1.17z m170.422 3.364c0 0.732 1.756 1.756 4.096 2.34 2.195 0.44 11.41 3.95 20.48 7.461 16.97 6.876 24.723 7.9 10.24 1.463-16.822-7.46-34.816-13.312-34.816-11.264z m40.229 22.09c-2.926 3.071-5.266 6.29-4.974 7.167 0.44 1.024 3.511-1.17 7.022-4.827 3.365-3.51 5.705-6.73 4.974-7.168-0.878-0.585-3.95 1.61-7.022 4.827z m-28.526 35.84c0 1.17-0.585 2.194-1.463 2.194-0.731 0-1.462 1.024-1.462 2.194s-0.586 2.194-1.463 2.194c-0.732 0-1.463 1.024-1.463 2.195s-0.585 2.194-1.463 2.194c-0.731 0-1.463 1.024-1.463 2.194s-0.585 2.194-1.463 2.194c-0.731 0-1.755 1.61-2.34 3.658-0.44 2.048-1.463 3.657-2.048 3.657-1.463 0-4.974 8.63-4.096 9.655 0.439 0.438 2.925-3.072 5.559-7.754 2.633-4.68 7.314-12.288 10.386-16.822 6.144-8.924 6.583-9.948 4.242-9.948-0.731 0-1.463 1.024-1.463 2.194z m-32.183 56.32c-4.534 9.654-2.779 11.117 2.048 1.609 4.096-8.046 4.389-8.924 2.634-8.924-0.732 0-2.78 3.218-4.682 7.314z" fill="#3370FE" p-id="4852"></path><path d="M530.286 516.389c-2.048 2.34-2.195 2.925-0.585 2.925 2.34 0 5.705-2.78 5.705-4.68 0-2.049-2.34-1.317-5.12 1.755z" fill="#3370FE" p-id="4853"></path><path d="M218.99 122.587c-5.12 5.56-3.365 7.9 20.626 26.186 97.719 75.044 184.174 167.058 253.367 269.604 14.336 21.212 46.519 74.02 50.03 82.066 2.486 5.56-2.634 9.948 55.588-46.957 69.047-67.584 100.791-90.259 147.456-105.472 5.266-1.756 9.948-3.365 10.533-3.804 0.585-0.292 0.146-3.218-1.024-6.729-1.024-3.364-4.681-15.067-8.046-25.892-26.185-84.261-85.43-179.932-117.467-189.44-12.581-3.804-407.699-3.219-411.063 0.438z" fill="#01D6B9" p-id="4854"></path><path d="M807.35 331.337c-57.343 7.9-113.81 32.914-156.964 69.925-7.753 6.583-38.912 36.425-69.34 66.12-67.73 66.415-91.135 85.578-138.824 113.08-14.921 8.63-14.921 8.63-8.046 11.556 72.997 32.33 132.681 54.126 187.83 68.316 80.02 20.626 154.479 1.755 209.043-53.102 23.26-23.406 29.696-33.792 69.632-113.518 40.229-80.31 47.543-92.452 74.02-122.587 5.56-6.29 9.948-11.703 9.656-11.996-1.61-1.462-34.378-14.043-45.203-17.408-38.912-11.702-91.575-15.798-131.803-10.386z" fill="#133C9A" p-id="4855"></path></svg>